<mxfile host="65bd71144e">
    <diagram name="Login/SignUp Routing" id="dEkRj4oSzRlJh8EYcVZT">
        <mxGraphModel dx="757" dy="571" grid="1" gridSize="10" guides="1" tooltips="1" connect="1" arrows="1" fold="1" page="1" pageScale="1" pageWidth="850" pageHeight="1100" math="0" shadow="0">
            <root>
                <mxCell id="IaI8EHT9lbqPZAH8DQkF-0"/>
                <mxCell id="IaI8EHT9lbqPZAH8DQkF-1" parent="IaI8EHT9lbqPZAH8DQkF-0"/>
                <mxCell id="IaI8EHT9lbqPZAH8DQkF-2" value="SignIn Page" style="whiteSpace=wrap;html=1;" vertex="1" parent="IaI8EHT9lbqPZAH8DQkF-1">
                    <mxGeometry x="210" y="70" width="200" height="60" as="geometry"/>
                </mxCell>
                <mxCell id="IaI8EHT9lbqPZAH8DQkF-3" style="edgeStyle=orthogonalEdgeStyle;html=1;" edge="1" parent="IaI8EHT9lbqPZAH8DQkF-1" source="IaI8EHT9lbqPZAH8DQkF-5" target="IaI8EHT9lbqPZAH8DQkF-2">
                    <mxGeometry relative="1" as="geometry"/>
                </mxCell>
                <mxCell id="IaI8EHT9lbqPZAH8DQkF-4" style="edgeStyle=orthogonalEdgeStyle;html=1;" edge="1" parent="IaI8EHT9lbqPZAH8DQkF-1" source="IaI8EHT9lbqPZAH8DQkF-5" target="IaI8EHT9lbqPZAH8DQkF-9">
                    <mxGeometry relative="1" as="geometry"/>
                </mxCell>
                <mxCell id="IaI8EHT9lbqPZAH8DQkF-5" value="Forgot Password Page" style="whiteSpace=wrap;html=1;" vertex="1" parent="IaI8EHT9lbqPZAH8DQkF-1">
                    <mxGeometry x="40" y="230" width="240" height="60" as="geometry"/>
                </mxCell>
                <mxCell id="IaI8EHT9lbqPZAH8DQkF-6" style="edgeStyle=orthogonalEdgeStyle;html=1;" edge="1" parent="IaI8EHT9lbqPZAH8DQkF-1" source="IaI8EHT9lbqPZAH8DQkF-8" target="IaI8EHT9lbqPZAH8DQkF-2">
                    <mxGeometry relative="1" as="geometry"/>
                </mxCell>
                <mxCell id="IaI8EHT9lbqPZAH8DQkF-7" style="edgeStyle=orthogonalEdgeStyle;html=1;" edge="1" parent="IaI8EHT9lbqPZAH8DQkF-1" source="IaI8EHT9lbqPZAH8DQkF-8" target="IaI8EHT9lbqPZAH8DQkF-9">
                    <mxGeometry relative="1" as="geometry"/>
                </mxCell>
                <mxCell id="IaI8EHT9lbqPZAH8DQkF-8" value="Create Your Account Page" style="whiteSpace=wrap;html=1;" vertex="1" parent="IaI8EHT9lbqPZAH8DQkF-1">
                    <mxGeometry x="390" y="230" width="220" height="60" as="geometry"/>
                </mxCell>
                <mxCell id="IaI8EHT9lbqPZAH8DQkF-9" value="SignIn Page" style="whiteSpace=wrap;html=1;" vertex="1" parent="IaI8EHT9lbqPZAH8DQkF-1">
                    <mxGeometry x="190" y="390" width="260" height="70" as="geometry"/>
                </mxCell>
                <mxCell id="hyiQLDh5C3r6DFfcaSK2-6" style="edgeStyle=none;html=1;" edge="1" parent="IaI8EHT9lbqPZAH8DQkF-1" source="hyiQLDh5C3r6DFfcaSK2-0">
                    <mxGeometry relative="1" as="geometry">
                        <mxPoint x="500" y="180" as="targetPoint"/>
                    </mxGeometry>
                </mxCell>
                <mxCell id="hyiQLDh5C3r6DFfcaSK2-0" value="Routes" style="text;html=1;align=center;verticalAlign=middle;resizable=0;points=[];autosize=1;strokeColor=none;fillColor=none;" vertex="1" parent="IaI8EHT9lbqPZAH8DQkF-1">
                    <mxGeometry x="520" y="130" width="60" height="30" as="geometry"/>
                </mxCell>
                <mxCell id="hyiQLDh5C3r6DFfcaSK2-7" style="edgeStyle=none;html=1;" edge="1" parent="IaI8EHT9lbqPZAH8DQkF-1" source="hyiQLDh5C3r6DFfcaSK2-1">
                    <mxGeometry relative="1" as="geometry">
                        <mxPoint x="500" y="340" as="targetPoint"/>
                    </mxGeometry>
                </mxCell>
                <mxCell id="hyiQLDh5C3r6DFfcaSK2-1" value="Routes" style="text;html=1;align=center;verticalAlign=middle;resizable=0;points=[];autosize=1;strokeColor=none;fillColor=none;" vertex="1" parent="IaI8EHT9lbqPZAH8DQkF-1">
                    <mxGeometry x="540" y="340" width="60" height="30" as="geometry"/>
                </mxCell>
                <mxCell id="hyiQLDh5C3r6DFfcaSK2-10" style="edgeStyle=none;html=1;" edge="1" parent="IaI8EHT9lbqPZAH8DQkF-1" source="hyiQLDh5C3r6DFfcaSK2-8">
                    <mxGeometry relative="1" as="geometry">
                        <mxPoint x="160" y="190" as="targetPoint"/>
                    </mxGeometry>
                </mxCell>
                <mxCell id="hyiQLDh5C3r6DFfcaSK2-8" value="Routes" style="text;html=1;align=center;verticalAlign=middle;resizable=0;points=[];autosize=1;strokeColor=none;fillColor=none;" vertex="1" parent="IaI8EHT9lbqPZAH8DQkF-1">
                    <mxGeometry x="70" y="140" width="60" height="30" as="geometry"/>
                </mxCell>
                <mxCell id="hyiQLDh5C3r6DFfcaSK2-16" style="edgeStyle=none;html=1;" edge="1" parent="IaI8EHT9lbqPZAH8DQkF-1" source="hyiQLDh5C3r6DFfcaSK2-14">
                    <mxGeometry relative="1" as="geometry">
                        <mxPoint x="160" y="330" as="targetPoint"/>
                    </mxGeometry>
                </mxCell>
                <mxCell id="hyiQLDh5C3r6DFfcaSK2-14" value="Routes" style="text;html=1;align=center;verticalAlign=middle;resizable=0;points=[];autosize=1;strokeColor=none;fillColor=none;" vertex="1" parent="IaI8EHT9lbqPZAH8DQkF-1">
                    <mxGeometry x="40" y="350" width="60" height="30" as="geometry"/>
                </mxCell>
            </root>
        </mxGraphModel>
    </diagram>
</mxfile>